<?xml version="1.0" standalone="no"?>
<!DOCTYPE svg PUBLIC "-//W3C//DTD SVG 20010904//EN"
 "http://www.w3.org/TR/2001/REC-SVG-20010904/DTD/svg10.dtd">
<svg version="1.0" xmlns="http://www.w3.org/2000/svg"
 width="512.000000pt" height="512.000000pt" viewBox="0 0 512.000000 512.000000"
 preserveAspectRatio="xMidYMid meet">
<metadata>
Created by potrace 1.16, written by Peter Selinger 2001-2019
</metadata>
<g transform="translate(0.000000,512.000000) scale(0.100000,-0.100000)"
fill="#000000" stroke="none">
<path d="M3255 4619 c-76 -8 -189 -46 -247 -84 -20 -13 -65 -50 -100 -81 -34
-31 -76 -65 -93 -75 -33 -21 -105 -25 -136 -9 -29 16 -23 0 17 -41 l35 -36
-30 -6 c-37 -8 -58 -1 -88 26 -27 24 -28 17 -8 -50 9 -31 28 -63 50 -84 19
-19 35 -38 35 -42 0 -14 -72 -39 -97 -32 -16 4 -31 20 -43 48 -17 37 -20 39
-21 17 -6 -93 23 -157 100 -215 28 -21 48 -42 45 -47 -3 -4 -23 -8 -45 -8 -32
0 -47 7 -70 30 -27 27 -30 27 -24 7 17 -59 112 -117 195 -117 34 0 36 -3 68
-72 19 -39 38 -99 43 -133 10 -76 23 -110 54 -151 l24 -31 -57 -43 c-62 -46
-126 -81 -184 -99 -24 -8 -44 -24 -57 -47 -11 -19 -28 -34 -37 -34 -10 0 -65
-23 -122 -51 -102 -49 -107 -50 -203 -52 l-98 -3 -47 73 c-25 39 -55 80 -66
89 -18 17 -21 17 -71 -8 -63 -31 -173 -112 -181 -134 -3 -8 0 -27 8 -42 13
-24 12 -27 -18 -41 -27 -14 -32 -22 -36 -65 -3 -29 -11 -52 -20 -57 -8 -5
-151 -63 -317 -131 -166 -67 -301 -123 -300 -125 2 -1 89 29 193 68 172 64
220 82 367 140 l48 19 -3 -21 c-2 -12 -10 -26 -18 -30 -14 -8 -234 -91 -445
-168 -164 -60 -397 -164 -403 -179 -7 -19 32 -564 58 -822 11 -102 22 -215 25
-253 4 -37 12 -73 20 -80 7 -7 80 -33 161 -57 82 -23 271 -85 419 -137 509
-177 959 -317 1153 -358 l113 -24 57 25 c31 14 63 31 72 39 21 19 352 200 608
332 218 113 222 116 222 194 0 36 3 41 33 51 58 21 161 79 210 120 26 22 52
38 57 36 5 -2 19 -19 32 -38 32 -48 78 -62 159 -49 120 19 153 56 151 174 0
72 -31 186 -77 290 -26 60 -75 105 -115 105 -42 0 -112 -28 -142 -57 -26 -25
-29 -25 -46 -10 -10 9 -24 17 -30 17 -21 0 -21 17 3 81 13 36 25 90 27 120 3
38 13 67 33 97 40 61 38 121 -9 235 -32 75 -39 107 -47 205 -21 261 -29 321
-53 417 -38 147 -85 236 -169 318 -38 37 -90 78 -114 91 -42 21 -44 24 -28 39
9 9 25 17 36 17 33 0 94 71 108 126 7 27 26 95 42 152 35 128 44 208 30 291
-14 86 -43 141 -110 211 -50 53 -61 60 -96 60 l-40 1 28 24 c15 14 37 25 48
25 19 0 24 15 13 44 -8 20 -43 20 -72 0 -21 -14 -26 -13 -80 20 -83 51 -168
67 -287 55z m228 -100 c22 -6 55 -26 75 -46 38 -35 29 -35 -20 1 -15 11 -58
28 -95 37 -55 15 -62 18 -33 18 19 1 52 -4 73 -10z m-268 -90 c-27 -10 -72
-36 -99 -57 -89 -68 -93 -69 -58 -25 54 69 109 102 172 102 35 0 35 0 -15 -20z
m80 -39 c3 -5 -3 -10 -14 -10 -11 0 -22 -4 -26 -10 -9 -15 75 -32 142 -28 35
2 63 3 63 1 0 -1 -12 -9 -27 -17 -44 -22 -107 -28 -153 -16 -49 13 -55 9 -76
-46 l-15 -39 5 35 c2 19 8 43 12 54 14 37 -20 10 -59 -45 -76 -109 -107 -132
-215 -154 -56 -12 -71 -20 -108 -59 -24 -25 -56 -47 -73 -51 -40 -9 -92 9
-122 41 l-23 25 44 -20 c76 -35 96 -27 165 64 16 22 32 28 85 35 117 15 163
47 215 149 19 39 45 73 62 83 31 19 108 24 118 8z m425 -36 c28 -24 60 -72 60
-90 0 -4 -14 12 -30 35 -17 23 -45 50 -63 61 -20 13 -26 20 -15 20 9 0 30 -12
48 -26z m-816 -16 c-22 -25 -103 -78 -118 -78 -6 0 12 13 39 29 28 16 59 38
69 50 11 11 21 21 24 21 3 0 -3 -10 -14 -22z m767 -67 c13 -10 35 -38 48 -62
l24 -44 -37 40 c-37 39 -37 40 -33 12 4 -26 3 -26 -13 -12 -30 27 -64 18 -99
-26 -63 -77 -132 -99 -185 -58 l-26 20 0 -33 c0 -90 118 -170 205 -138 28 10
29 9 10 -6 -29 -23 -122 -15 -163 15 -43 31 -63 71 -70 149 l-7 64 -51 -58
c-29 -33 -67 -68 -85 -78 -26 -16 -15 1 50 73 70 75 89 91 105 86 71 -23 133
-13 185 31 55 46 104 55 142 25z m-388 -239 c13 -62 101 -131 169 -132 23 0
31 -9 59 -67 28 -59 34 -65 43 -49 54 90 82 108 136 86 76 -32 79 -150 4 -209
-22 -17 -38 -22 -65 -18 -36 5 -37 4 -60 -52 -34 -82 -107 -151 -220 -206
-121 -59 -158 -60 -265 -6 -139 70 -184 122 -205 238 -6 32 -28 96 -49 143
-55 122 -55 135 6 192 48 45 51 47 89 38 100 -23 229 -2 300 48 22 16 43 28
46 26 4 -2 9 -17 12 -32z m356 -78 c2 -2 -5 -4 -16 -4 -12 0 -23 7 -27 15 -5
13 -2 14 17 4 12 -6 24 -13 26 -15z m88 -506 c19 -20 22 -28 12 -28 -32 0
-119 -53 -145 -88 l-27 -37 39 36 c79 74 135 86 186 40 l32 -28 -50 4 c-78 8
-169 -41 -216 -115 -29 -46 -34 -33 -7 20 l21 43 -26 -25 c-43 -39 -82 -118
-100 -200 -19 -87 -58 -160 -112 -210 l-38 -35 25 35 c14 19 36 52 49 74 l23
38 -75 -41 c-73 -40 -247 -106 -256 -97 -6 7 -71 260 -86 336 l-13 65 -7 -50
c-4 -27 -10 -63 -15 -80 -7 -27 -9 -22 -20 44 -13 72 -11 137 5 175 5 12 4 17
-3 13 -22 -14 -36 -97 -29 -180 l7 -82 -51 50 -51 50 21 -48 c22 -49 40 -171
23 -152 -5 6 -19 42 -32 80 -27 82 -64 141 -109 172 -35 23 -29 38 11 28 18
-5 42 7 103 51 43 31 92 67 107 80 l28 24 52 -30 c52 -29 52 -30 58 -87 10
-97 62 -175 141 -207 97 -41 173 -4 263 127 31 45 81 117 111 161 30 43 58 91
61 107 l5 29 30 -18 c16 -9 41 -29 55 -44z m-172 15 c-50 -121 -173 -223 -267
-223 -48 0 -60 6 -76 36 -11 20 -9 22 47 27 85 7 137 36 221 120 41 42 78 76
83 76 4 1 0 -16 -8 -36z m250 -129 c9 -4 26 -25 38 -48 20 -37 22 -56 22 -181
0 -109 -4 -153 -19 -200 -10 -33 -18 -79 -17 -103 2 -33 -4 -53 -25 -85 l-27
-41 -19 51 c-35 94 -114 155 -225 173 -30 5 -58 11 -60 14 -2 2 10 14 27 26
38 27 119 29 178 5 35 -15 36 -15 20 1 -9 10 -48 25 -85 35 l-68 17 105 31
c134 41 136 42 67 36 -33 -3 -84 -15 -115 -26 -101 -36 -96 -35 -82 -8 7 13
45 57 84 98 72 76 73 83 1 26 -65 -51 -66 -51 -50 1 25 83 87 154 153 174 34
10 75 12 97 4z m-704 -77 c12 -46 63 -105 106 -123 51 -22 86 -17 159 21 57
30 64 32 48 13 -30 -36 -46 -48 -93 -70 -99 -46 -212 26 -240 154 -6 26 -8 55
-4 65 7 17 8 17 11 -2 2 -11 8 -37 13 -58z m74 8 c29 -78 90 -93 196 -50 70
28 65 12 -10 -37 -97 -61 -195 -18 -222 99 -11 51 15 42 36 -12z m-1075 -105
c64 -95 78 -109 90 -91 11 18 85 25 119 12 25 -11 36 -9 97 19 102 47 186 80
205 80 42 0 119 -105 119 -164 0 -30 -7 -32 -136 -41 -113 -7 -174 1 -174 24
-1 14 -2 14 -14 -1 -16 -22 -26 -23 -26 -3 0 9 -15 -1 -36 -24 -36 -40 -88
-61 -106 -43 -6 6 -5 17 3 30 10 17 10 24 -4 45 -10 16 -13 28 -7 32 15 9 12
25 -4 25 -24 0 -28 -18 -10 -45 9 -14 14 -28 11 -31 -6 -6 -61 64 -137 174
-28 39 -58 72 -67 72 -17 0 -127 -76 -155 -107 -17 -18 -16 -21 20 -64 39 -47
99 -139 146 -221 23 -41 29 -46 54 -42 19 3 23 2 12 -5 -8 -5 -18 -7 -22 -5
-4 3 -8 0 -8 -5 0 -6 2 -11 5 -11 12 0 145 63 141 67 -2 2 -22 -5 -45 -16 -41
-21 -71 -29 -38 -10 9 6 15 15 11 20 -3 6 0 9 7 8 8 -1 27 3 42 9 16 7 43 13
60 13 22 1 25 3 11 6 -25 5 -41 21 -73 76 -32 53 -19 46 23 -13 32 -45 39 -49
57 -40 30 17 41 8 23 -18 -17 -25 -210 -126 -224 -117 -5 3 -39 56 -77 118
-37 61 -91 140 -120 174 l-52 62 52 46 c57 52 146 107 159 99 5 -3 35 -45 68
-94z m-50 18 c14 -19 16 -27 7 -19 -27 22 -20 3 19 -50 19 -27 41 -48 47 -46
7 1 11 -6 9 -17 -2 -10 1 -15 6 -12 5 3 15 -1 22 -9 9 -10 9 -15 1 -15 -6 0
-11 3 -11 8 0 4 -11 8 -25 8 -16 1 -24 -3 -22 -10 3 -6 10 -10 16 -8 6 1 10
-2 8 -7 -1 -5 5 -16 14 -23 9 -7 28 -34 43 -61 l27 -47 -26 -10 c-15 -6 -30
-10 -34 -10 -5 0 -14 -6 -20 -14 -20 -24 -59 -25 -78 -2 l-18 21 23 -19 c26
-22 28 -15 6 19 -9 14 -20 23 -24 20 -5 -3 -12 0 -16 6 -5 8 -3 9 6 4 8 -5 11
-3 8 6 -3 8 -11 13 -17 11 -7 -1 -10 2 -6 8 3 5 2 10 -3 10 -6 0 -19 16 -31
36 -12 19 -16 32 -10 28 7 -4 10 -1 7 7 -3 8 -10 14 -16 14 -6 0 -17 7 -24 15
-11 12 -11 12 5 1 23 -18 22 -8 -5 34 -21 32 -48 51 -32 23 4 -7 -2 -5 -12 5
-18 17 -18 18 1 36 17 16 123 91 129 91 1 0 13 -15 26 -32z m679 -4 c28 -36
48 -101 34 -115 -7 -7 -19 5 -38 38 -15 26 -39 60 -53 76 l-26 27 31 0 c22 0
38 -8 52 -26z m-629 -64 c12 -16 19 -30 16 -30 -2 0 -14 14 -26 30 -12 17 -19
30 -16 30 2 0 14 -13 26 -30z m-254 -101 c8 -14 -14 -29 -43 -29 -22 0 -31 19
-16 33 10 11 51 8 59 -4z m2100 -169 c-11 -167 -42 -262 -109 -334 -47 -49
-60 -46 -36 8 11 25 20 66 21 93 1 28 12 69 26 98 35 71 70 179 78 238 12 92
27 15 20 -103z m-2056 119 c0 -5 -7 -9 -15 -9 -15 0 -20 12 -9 23 8 8 24 -1
24 -14z m-46 -29 c26 -17 44 -35 41 -40 -14 -22 -67 -41 -96 -35 -43 10 -47
31 -13 67 25 26 26 29 7 19 -21 -11 -32 -3 -16 12 12 12 29 7 77 -23z m1125
-7 c19 -73 40 -167 37 -170 -8 -8 -174 21 -271 47 -98 26 -113 33 -141 66 -28
33 -35 36 -67 31 -23 -3 -53 1 -81 12 -51 19 -74 37 -36 28 66 -16 207 -25
321 -23 100 3 134 8 170 24 59 27 57 27 68 -15z m-532 -39 l36 -7 -24 -13
c-35 -19 -60 -17 -94 10 -25 20 -28 26 -16 40 12 14 15 14 38 -4 14 -11 41
-22 60 -26z m170 -94 c45 -90 51 -109 31 -92 -7 6 -22 33 -33 61 -11 28 -29
62 -40 76 l-20 24 -75 -24 c-41 -14 -81 -29 -87 -33 -10 -6 -9 -32 5 -120 10
-62 15 -112 10 -112 -4 0 -8 3 -8 8 0 4 -7 45 -14 92 -27 155 -34 138 69 175
50 19 97 33 105 32 8 -1 34 -40 57 -87z m-601 -38 c27 -23 68 -48 91 -55 29
-8 40 -16 34 -25 -12 -20 -105 33 -177 102 l-64 61 -60 -60 c-36 -36 -60 -53
-60 -44 0 9 29 44 65 79 l66 62 28 -39 c16 -22 50 -58 77 -81z m1593 81 c20
-15 39 -32 43 -37 15 -25 39 -50 33 -36 -4 8 1 6 10 -5 30 -37 32 -95 3 -95
-9 0 -9 3 0 12 7 7 12 18 12 25 0 10 -8 8 -27 -6 -33 -24 -165 -60 -362 -100
-107 -21 -148 -34 -157 -48 -54 -78 -79 -103 -120 -119 -24 -9 -47 -15 -49
-12 -6 6 30 44 71 76 25 20 26 21 4 11 -14 -7 -48 -34 -77 -60 -28 -27 -57
-49 -63 -49 -24 0 -22 32 5 60 37 38 28 47 -15 15 -46 -34 -70 -33 -70 3 0 19
9 33 30 47 16 11 30 23 30 27 0 10 -29 -1 -62 -24 -31 -22 -42 -22 -57 -4 -10
11 -6 21 19 50 17 19 40 38 51 41 10 4 19 10 19 15 0 14 -56 -9 -76 -31 -30
-34 -63 -16 -42 24 9 17 90 63 138 78 22 6 21 7 -11 8 -20 1 -56 9 -80 20 -24
10 -67 25 -96 32 -46 11 -73 33 -59 46 3 3 33 -4 68 -15 108 -36 181 -51 240
-50 43 0 67 -5 103 -26 55 -30 56 -30 49 -13 -2 8 4 13 16 14 11 1 66 23 123
49 273 125 287 128 356 77z m-1813 -14 c3 -5 -3 -9 -13 -9 -14 0 -15 -2 -4 -9
17 -11 -1 -23 -23 -15 -17 7 -22 24 -6 24 5 0 7 6 4 14 -4 11 0 13 15 9 12 -3
24 -9 27 -14z m554 11 c0 -12 -26 -26 -65 -33 l-30 -6 32 14 c17 8 34 19 38
25 8 13 25 13 25 0z m241 -67 c16 -34 29 -65 29 -68 0 -3 -13 -5 -28 -5 -16 0
-37 -9 -47 -20 -10 -11 -24 -20 -32 -20 -8 0 -11 -4 -8 -10 3 -5 0 -10 -8 -10
-8 0 -22 -9 -32 -20 -34 -38 -41 -25 -40 74 l0 95 50 14 c28 8 49 19 48 25 -2
6 7 10 18 9 15 -1 29 -19 50 -64z m-116 47 c-27 -12 -43 -12 -25 0 8 5 22 9
30 9 10 0 8 -3 -5 -9z m-575 -5 c0 -3 -25 -32 -55 -65 -30 -33 -55 -56 -55
-52 0 8 99 122 106 122 2 0 4 -2 4 -5z m454 -52 c3 -21 6 -50 6 -65 l0 -27
-52 30 c-74 43 -83 53 -63 69 13 11 60 26 91 29 6 1 14 -16 18 -36z m-610 -4
c-3 -5 -1 -9 4 -9 5 0 14 -33 19 -72 6 -40 13 -82 15 -92 1 -10 -2 -21 -8 -23
-7 -2 -12 2 -11 9 1 25 -16 98 -23 98 -4 0 -5 12 -2 26 3 19 1 25 -7 20 -8 -6
-10 0 -5 18 4 18 2 26 -7 26 -19 0 -220 -72 -215 -77 4 -4 157 36 200 53 12 5
15 2 10 -10 -3 -9 -9 -14 -13 -11 -4 2 -30 -2 -57 -10 -27 -8 -68 -19 -90 -25
l-42 -10 18 -68 c9 -37 25 -85 34 -106 9 -22 15 -41 13 -43 -7 -6 -55 110 -73
176 -10 35 -23 65 -29 67 -6 3 -36 -10 -66 -28 -30 -18 -78 -44 -107 -57 -38
-18 -52 -30 -52 -45 0 -17 -13 -26 -57 -43 -32 -12 -67 -24 -78 -25 -11 -2
145 -45 346 -96 202 -51 440 -115 530 -143 90 -28 238 -73 329 -99 345 -100
485 -142 499 -150 11 -6 3 -16 -33 -38 -40 -26 -52 -29 -74 -21 -38 15 -926
282 -1072 323 -136 38 -588 147 -598 144 -15 -4 -114 54 -106 61 5 5 101 48
214 96 113 48 227 98 254 112 27 14 58 22 70 20 12 -3 72 14 136 38 81 30 119
40 127 33 7 -6 10 -14 7 -19z m145 -11 c-18 -24 -46 -58 -63 -75 -53 -58 -17
-49 42 10 32 31 61 57 65 57 5 0 25 -11 45 -25 20 -14 58 -32 84 -41 45 -15
66 -30 55 -40 -6 -7 -57 18 -57 28 0 18 -22 6 -65 -33 -25 -23 -42 -45 -40
-50 3 -4 -14 0 -37 10 -24 11 -54 22 -68 26 -25 8 -25 7 -7 -13 20 -22 62 -38
50 -19 -4 7 2 5 12 -3 17 -14 16 -15 -16 -18 -29 -3 -39 2 -66 35 -18 21 -33
41 -33 45 0 11 114 147 123 148 5 0 -6 -19 -24 -42z m518 0 c-3 -8 -6 -5 -6 6
-1 11 2 17 5 13 3 -3 4 -12 1 -19z m-226 -18 c-24 -20 -61 -27 -61 -11 0 4 15
13 33 19 48 15 54 13 28 -8z m619 -21 c13 -7 13 -8 -1 -9 -22 0 -108 30 -114
40 -6 10 90 -16 115 -31z m-501 -31 c38 -23 68 -44 65 -47 -2 -3 -36 10 -74
29 l-69 34 -23 -30 c-13 -16 -22 -31 -21 -34 1 -3 -7 -6 -17 -6 -10 0 -16 5
-12 11 15 26 66 85 73 85 4 0 39 -19 78 -42z m-599 15 c0 -16 2 -16 10 -3 8
11 9 7 4 -14 -4 -17 -3 -27 2 -23 5 3 10 -11 11 -31 1 -21 4 -46 5 -57 2 -12
-4 -21 -14 -23 -13 -2 -18 3 -18 17 0 30 -21 70 -40 76 -42 13 -76 -26 -57
-66 17 -33 59 -33 67 1 l6 25 11 -30 c10 -30 9 -32 -38 -63 -27 -18 -49 -27
-49 -21 0 5 -4 8 -9 5 -5 -4 -7 4 -3 16 3 14 1 19 -6 14 -8 -5 -10 -2 -6 8 3
9 1 16 -5 16 -6 0 -8 7 -5 15 4 8 2 15 -3 15 -5 0 -9 8 -10 18 0 9 -4 31 -8
48 -7 31 -6 32 41 42 27 6 60 15 74 21 35 14 40 13 40 -6z m717 -25 c-3 -7 -5
-2 -5 12 0 14 2 19 5 13 2 -7 2 -19 0 -25z m313 1 c20 -36 9 -54 -31 -51 -21
2 -40 -2 -47 -10 -9 -11 -5 -14 23 -14 19 0 36 -2 38 -4 2 -3 7 -31 10 -63 l6
-57 -32 22 c-44 31 -147 140 -147 155 0 7 11 13 25 13 36 0 128 -21 143 -32
14 -12 16 1 2 22 -10 16 -9 16 -95 19 -77 3 -47 19 37 20 48 1 59 -2 68 -20z
m-1260 2 c0 -5 3 -18 7 -28 6 -16 5 -16 -10 -4 -15 12 -24 9 -72 -20 -30 -18
-55 -37 -55 -42 0 -4 -5 -5 -12 -1 -7 4 -8 3 -4 -4 6 -11 -5 -16 -26 -14 -3 1
-9 -5 -12 -14 -3 -8 -2 -13 3 -9 11 6 73 -66 65 -74 -3 -3 -15 5 -26 19 -11
14 -24 25 -29 25 -14 0 -36 38 -32 54 3 9 41 34 85 56 44 22 84 46 90 53 12
14 28 16 28 3z m768 -32 c-9 -6 -8 -9 8 -9 11 0 26 6 33 13 10 10 11 9 6 -4
-8 -21 57 -53 75 -36 10 9 11 9 6 -1 -4 -7 -2 -20 6 -29 12 -15 10 -14 -19 0
-44 23 -50 21 -23 -8 13 -14 30 -25 39 -25 10 0 1 -14 -24 -40 -21 -22 -44
-40 -49 -40 -6 0 0 7 12 16 25 17 20 39 -7 29 -12 -5 -13 -3 -5 5 13 13 7 50
-8 50 -5 0 -6 5 -2 12 4 7 3 8 -5 4 -6 -4 -9 -11 -6 -16 3 -4 -2 -10 -9 -13
-21 -8 -67 75 -54 96 5 9 15 14 24 10 13 -5 13 -7 2 -14z m1427 1 c-22 -36
-274 -130 -351 -130 -59 -1 -28 -12 144 -55 99 -24 150 -41 144 -47 -16 -16
-51 -12 -152 16 -52 15 -119 34 -147 42 -32 9 -53 20 -53 29 0 16 -1 15 143
50 101 24 240 76 262 96 12 12 18 11 10 -1z m-1625 -20 c-24 -15 -37 -11 -16
5 11 8 22 12 25 9 3 -3 -1 -9 -9 -14z m638 -136 l55 -50 -49 -29 c-27 -15 -60
-35 -74 -43 l-25 -14 25 23 c14 13 39 34 55 46 l30 22 -84 85 c-64 65 -88 83
-100 76 -9 -4 -56 -43 -105 -86 -76 -67 -86 -79 -69 -85 11 -4 38 -29 60 -55
32 -36 38 -50 29 -60 -9 -10 -17 -6 -42 17 -17 16 -40 47 -52 68 l-22 39 107
102 107 103 49 -54 c27 -30 74 -77 105 -105z m-1195 94 c19 -29 37 -62 41 -72
6 -16 4 -17 -10 -5 -16 13 -74 108 -74 122 0 17 12 4 43 -45z m-23 -25 c19
-37 42 -75 52 -85 17 -17 17 -18 -7 -34 -18 -12 -29 -13 -42 -5 -16 9 -15 10
9 11 29 0 45 15 28 25 -6 3 -23 -3 -39 -14 -15 -11 -31 -18 -34 -15 -3 3 -13
7 -24 8 -10 2 -19 8 -19 14 -1 7 -2 17 -3 23 0 5 -6 7 -13 3 -7 -4 -8 -3 -4 4
4 7 -4 23 -18 36 l-24 25 44 26 c24 14 44 30 44 35 0 25 18 4 50 -57z m190 62
c0 -3 -9 -14 -20 -25 -13 -13 -20 -15 -20 -7 0 7 5 18 12 25 12 12 28 16 28 7z
m590 -115 c30 -58 72 -135 93 -172 21 -38 34 -68 29 -68 -8 0 -48 68 -137 233
-26 49 -54 91 -62 94 -18 7 -74 -6 -154 -37 -89 -34 -88 -32 -53 -97 17 -31
39 -58 48 -59 9 -1 16 1 16 5 0 16 -52 81 -60 76 -6 -4 -7 1 -3 11 5 13 3 15
-8 10 -8 -4 -5 0 5 8 28 22 125 58 138 50 16 -10 -14 -24 -37 -18 -17 4 -17 3
-5 -6 12 -9 10 -10 -9 -5 -16 5 -21 4 -17 -4 5 -7 1 -8 -10 -4 -11 4 -15 3
-11 -4 5 -7 0 -9 -13 -6 -14 4 -20 0 -20 -11 0 -9 2 -16 4 -16 4 0 72 29 183
76 7 4 13 -6 15 -23 2 -15 8 -28 15 -28 6 0 15 -4 20 -9 5 -5 2 -6 -6 -1 -9 5
-12 3 -9 -6 3 -8 11 -13 17 -11 7 1 10 -2 7 -7 -4 -5 7 -36 23 -68 l30 -58
-32 -8 c-18 -4 -54 -19 -80 -32 l-48 -23 -40 51 c-37 47 -76 72 -66 44 2 -7 9
-12 15 -12 5 0 14 -4 19 -9 5 -5 3 -6 -4 -2 -26 14 -12 -11 34 -63 27 -31 38
-49 26 -43 -32 17 -90 89 -136 167 -22 39 -47 78 -55 87 -12 14 -11 18 7 27
43 23 227 81 251 79 20 -3 34 -22 80 -108z m1764 -58 c29 -92 27 -102 -25
-147 -28 -23 -159 -95 -174 -95 -3 0 -5 44 -5 98 l0 99 -132 32 c-73 17 -160
40 -193 50 -51 16 -55 19 -28 20 33 1 251 -41 310 -60 18 -6 37 -18 42 -27 8
-14 14 -13 51 12 47 31 96 103 107 155 l7 36 7 -45 c4 -25 18 -83 33 -128z
m-1876 124 c-7 -8 -17 -12 -22 -9 -4 3 -2 9 5 14 22 13 31 11 17 -5z m414 2
c8 -7 35 -35 59 -63 l43 -50 -57 55 -57 54 -34 -18 c-19 -10 -53 -39 -77 -64
-33 -35 -35 -39 -9 -16 19 17 51 43 71 57 l35 26 63 -63 63 -64 -59 -49 c-52
-43 -64 -49 -95 -45 -28 3 -46 15 -82 57 l-45 53 74 71 c41 39 79 71 83 71 5
0 15 -6 24 -12z m-698 -27 c3 -4 -15 -11 -39 -14 -61 -9 -137 -49 -184 -97
-46 -47 -61 -52 -31 -10 32 44 83 80 153 106 67 25 93 29 101 15z m-27 -27
c-3 -3 -12 -4 -19 -1 -8 3 -5 6 6 6 11 1 17 -2 13 -5z m1402 -21 c-2 -10 2
-27 8 -39 11 -19 6 -23 -63 -57 -74 -37 -124 -47 -124 -26 0 6 9 13 20 16 11
3 20 9 20 14 0 5 8 5 17 2 13 -5 9 -9 -18 -19 -19 -7 -26 -13 -16 -13 22 -1
142 53 151 68 11 17 -5 13 -41 -9 -18 -11 -33 -16 -33 -12 0 4 -5 0 -10 -8 -7
-11 -12 -12 -20 -4 -9 9 -6 16 11 27 12 9 27 13 32 10 6 -3 7 -2 4 4 -7 11 38
63 54 63 6 0 9 -8 8 -17z m-1396 -12 c-12 -10 -19 -22 -15 -25 3 -4 -1 -4 -9
-1 -9 3 -22 -2 -30 -12 -13 -16 -12 -17 4 -4 9 7 17 9 17 3 0 -11 -28 -24 -39
-18 -4 3 -22 -8 -40 -25 -19 -17 -37 -26 -44 -22 -7 4 -20 6 -29 5 -28 -5 -21
14 12 38 17 12 27 26 24 32 -4 6 -2 8 4 5 14 -9 43 3 36 14 -3 5 1 7 8 4 7 -3
33 2 58 9 60 20 69 19 43 -3z m40 4 c-3 -9 -8 -14 -10 -11 -3 3 -2 9 2 15 9
16 15 13 8 -4z m-863 -97 c0 -22 -35 -24 -44 -3 -3 8 -10 15 -16 15 -13 0 -13
-46 0 -71 11 -19 12 -18 48 8 20 16 42 34 48 42 9 12 33 9 155 -18 238 -53
432 -106 669 -182 124 -39 281 -88 350 -109 574 -174 523 -164 595 -116 l54
36 37 -22 36 -21 -31 -13 c-17 -7 -47 -25 -66 -40 l-35 -26 0 -528 0 -527 -91
18 c-131 27 -132 28 -58 82 35 26 71 47 81 47 10 0 18 5 18 10 0 6 -15 10 -34
10 l-33 0 -5 383 c-3 210 -4 384 -2 386 1 2 17 -1 33 -7 27 -9 33 -8 46 11 8
12 15 35 15 52 l-1 30 -14 -32 c-11 -27 -20 -33 -43 -33 -42 0 -54 20 -50 85
1 30 0 55 -3 55 -8 0 -19 -53 -19 -89 l0 -27 -362 121 -363 121 -17 36 c-48
100 -180 137 -258 72 l-30 -26 -167 47 c-93 26 -224 62 -293 80 -69 17 -136
35 -149 39 -23 8 -24 8 -17 -45 3 -30 13 -171 21 -314 21 -334 36 -445 29
-210 -4 163 -19 415 -29 501 l-4 41 42 -14 c23 -8 47 -19 53 -24 6 -5 14 -6
17 -2 4 3 7 1 7 -6 0 -7 4 -10 8 -7 8 5 204 -54 247 -74 37 -17 175 -48 194
-43 17 4 19 -4 23 -109 4 -107 3 -114 -17 -135 -13 -12 -31 -20 -41 -18 -11 2
-22 4 -26 4 -5 1 -8 8 -8 16 0 8 -3 14 -7 13 -5 -1 -32 6 -62 15 -75 23 -98
22 -117 -8 -13 -20 -15 -39 -10 -93 16 -165 14 -160 59 -187 23 -14 39 -25 34
-25 -20 0 -133 35 -138 43 -4 6 -10 72 -14 148 -7 132 -6 139 15 168 23 34 49
38 109 21 33 -9 33 -9 27 20 -3 17 -4 30 -3 30 1 0 24 -7 51 -15 84 -26 62 -9
-33 25 -50 18 -91 38 -91 44 0 23 -25 66 -36 62 -6 -3 -15 -1 -20 4 -12 11
-174 54 -180 48 -4 -5 7 -144 41 -488 9 -85 17 -160 20 -166 2 -7 28 -20 57
-29 29 -10 188 -67 353 -127 344 -126 617 -220 622 -214 6 5 -53 46 -66 46 -7
0 -35 12 -64 27 -29 14 -61 28 -72 29 -11 1 -33 9 -50 18 -19 10 -33 12 -39 6
-6 -6 -19 -10 -30 -10 -15 0 -17 3 -9 11 16 16 -3 54 -34 68 -50 23 -16 20 62
-5 44 -14 107 -28 141 -31 57 -5 63 -4 95 25 32 28 34 34 37 107 3 57 7 75 17
71 17 -6 23 10 31 87 6 58 4 65 -21 95 -19 23 -35 32 -56 32 -38 0 -79 -40
-79 -76 0 -15 -2 -25 -6 -22 -3 3 -6 79 -7 168 l-2 162 25 -5 c14 -2 150 -44
303 -92 l277 -88 0 -388 c0 -379 0 -388 20 -394 11 -3 20 -9 19 -13 0 -4 -25
-27 -55 -50 -45 -36 -60 -43 -82 -37 -60 14 -614 193 -867 280 -452 156 -436
149 -468 201 -39 60 -123 152 -149 159 -11 4 -25 2 -30 -3 -8 -8 -3 -13 16
-18 16 -4 51 -35 87 -78 69 -81 86 -108 67 -102 -7 2 -57 19 -110 36 l-97 33
-5 76 c-3 42 -22 245 -41 451 -20 206 -39 417 -42 468 l-6 93 56 -33 c34 -20
57 -40 57 -50z m1664 56 c3 -8 2 -12 -4 -9 -6 3 -10 10 -10 16 0 14 7 11 14
-7z m-1107 -19 c-4 -8 -14 -15 -23 -15 -16 0 -16 2 1 20 20 22 31 20 22 -5z
m323 20 c0 -3 -15 -14 -32 -25 -18 -11 -29 -20 -24 -20 5 0 -1 -11 -14 -25
-13 -14 -28 -25 -34 -25 -6 0 3 11 19 25 37 30 28 32 -19 4 -20 -11 -41 -19
-47 -17 -20 7 88 70 149 87 1 1 2 -1 2 -4z m1466 -19 c27 -8 79 -20 117 -26
62 -11 101 -30 60 -30 -31 0 -183 39 -211 55 -34 18 -27 18 34 1z m-526 -17
c0 -5 9 -9 20 -9 11 0 29 -9 41 -21 16 -16 31 -20 75 -18 l55 3 50 -83 c27
-45 47 -86 44 -91 -3 -5 0 -12 7 -16 7 -5 -3 -12 -28 -19 -26 -8 -44 -8 -56
-1 -19 11 -45 -6 -58 -39 -8 -19 -9 -19 -9 -1 -1 26 27 56 53 56 14 0 17 3 10
10 -6 6 -18 8 -27 4 -23 -8 -71 -75 -72 -98 0 -22 -46 -51 -68 -43 -7 2 5 12
26 22 20 11 37 22 37 27 0 11 -2 10 -43 -7 -53 -22 -55 -19 -14 23 21 21 35
41 32 44 -3 2 5 13 17 24 l23 19 -20 -25 -20 -25 22 19 c12 10 21 23 20 29 -1
6 3 11 9 12 16 0 77 55 70 63 -4 3 -20 -9 -37 -27 -16 -19 -29 -29 -29 -23 0
6 18 26 41 46 23 19 38 40 34 46 -4 6 -38 -19 -87 -65 -44 -41 -87 -75 -96
-75 -12 1 -9 6 11 22 46 34 159 149 153 155 -5 6 -93 -64 -117 -94 -12 -15
-12 -16 1 -8 8 4 12 5 8 0 -5 -5 -21 -9 -38 -9 -38 -1 -42 31 -5 40 14 3 25
10 25 15 0 12 -17 11 -25 -1 -11 -18 -35 -11 -35 10 0 16 7 20 38 21 20 0 55
6 77 13 39 13 38 13 -45 12 -69 -1 -85 2 -85 14 0 8 -11 23 -25 32 l-25 18 23
0 c13 0 20 4 17 10 -3 6 1 7 9 4 9 -3 16 -10 16 -15z m-1070 8 c0 -2 -12 -14
-27 -28 l-28 -24 24 28 c23 25 31 32 31 24z m1624 -76 c16 -17 16 -21 4 -21
-14 0 -98 82 -98 96 0 7 69 -47 94 -75z m-1446 30 c30 -53 15 -66 -58 -50
l-52 11 38 39 c21 21 41 39 44 39 4 0 16 -17 28 -39z m1293 0 c-40 -34 -49
-61 -20 -61 6 0 7 5 4 11 -4 6 2 13 13 16 11 3 23 16 26 29 4 13 11 24 16 24
14 0 13 -13 -2 -28 -7 -7 -8 -12 -4 -12 5 0 3 -6 -4 -14 -6 -8 -19 -12 -28 -9
-12 3 -13 2 -5 -4 9 -7 -1 -22 -37 -58 -27 -27 -51 -47 -53 -44 -21 26 -47 69
-47 77 0 11 158 111 175 111 6 0 -10 -17 -34 -38z m462 16 l38 -12 -118 -65
c-65 -35 -161 -89 -213 -120 -114 -68 -328 -189 -388 -219 -64 -33 -63 -18 2
25 31 20 56 39 56 41 0 2 -30 -12 -67 -31 -55 -27 -72 -31 -90 -23 -13 5 -23
14 -23 18 0 11 191 107 298 149 85 34 125 61 51 35 -23 -9 -44 -13 -47 -10 -6
6 427 221 448 223 8 0 32 -5 53 -11z m-902 -32 c18 -30 39 -180 39 -270 0 -39
-3 -46 -17 -43 -14 3 -20 23 -30 107 -6 57 -16 107 -20 112 -4 4 -19 9 -33 12
l-25 4 26 2 c43 2 58 -26 68 -128 13 -124 25 -131 17 -11 -7 108 -21 170 -39
170 -7 0 -54 -14 -105 -32 l-93 -32 5 -70 c4 -54 3 -63 -4 -36 -5 19 -10 53
-12 74 l-3 39 100 38 c55 21 105 40 110 42 6 2 7 8 3 12 -8 8 -101 -23 -181
-61 -28 -13 -47 -18 -45 -11 5 15 188 115 207 113 8 0 23 -15 32 -31z m546
-69 c-27 -18 -28 -18 -42 0 -14 18 -18 16 -75 -43 -88 -90 -82 -61 8 37 42 46
68 81 58 77 -16 -6 -17 -5 -6 8 11 14 17 11 49 -22 l36 -38 -28 -19z m433 0
l0 -64 -36 -12 c-32 -11 -38 -10 -60 11 l-25 24 -115 -58 c-112 -57 -119 -64
-115 -109 2 -15 -33 -35 -51 -30 -5 1 -8 -2 -8 -7 0 -10 -38 -24 -58 -22 -7 1
-15 -5 -18 -13 -3 -9 -10 -13 -15 -10 -5 3 -9 0 -9 -6 0 -6 -4 -9 -9 -6 -5 4
-11 2 -13 -2 -1 -5 -63 -41 -135 -79 l-133 -71 0 47 c0 46 0 47 53 74 62 31
146 77 367 202 232 131 353 195 368 195 8 0 12 -19 12 -64z m-1464 12 c12 -14
14 -19 4 -14 -8 5 -3 -2 12 -15 21 -18 25 -28 18 -39 -8 -12 -14 -11 -40 8
-31 23 -61 26 -61 7 0 -5 15 -13 33 -16 18 -4 29 -7 23 -8 -5 -1 -4 -5 4 -10
10 -6 1 -8 -24 -6 -22 2 -45 11 -51 20 -7 9 -22 15 -35 13 -16 -2 -25 3 -27
13 -2 12 11 22 42 35 28 12 40 21 33 26 -7 4 1 8 19 8 19 0 38 -8 50 -22z
m-153 -12 c16 9 31 13 33 11 3 -2 -9 -10 -26 -17 -17 -7 -27 -17 -23 -24 3 -6
-8 2 -25 18 -18 17 -32 32 -32 35 0 3 10 -4 22 -16 20 -20 23 -21 51 -7z m365
-16 c12 -18 22 -40 22 -49 0 -9 -11 1 -24 22 -12 20 -26 40 -29 43 -3 4 -34
-19 -68 -50 -87 -78 -99 -70 -16 10 38 36 74 63 80 61 7 -2 22 -18 35 -37z
m162 -14 c-14 -7 -36 -16 -50 -20 -14 -3 -7 3 15 13 45 22 73 27 35 7z m-176
-33 c35 -71 47 -105 36 -98 -11 7 -44 67 -60 110 -15 39 4 29 24 -12z m251 15
c6 -28 23 -182 20 -186 -1 -1 -9 0 -17 3 -8 3 -19 27 -24 53 -7 38 -13 48 -32
50 -12 2 -29 -4 -38 -13 -14 -13 -15 -21 -5 -41 10 -24 10 -25 -11 -18 -13 3
-24 7 -25 8 -1 1 -5 29 -8 62 l-7 62 58 20 c76 26 83 26 89 0z m-295 -8 c0 -5
-5 -10 -11 -10 -5 0 -7 5 -4 10 3 6 8 10 11 10 2 0 4 -4 4 -10z m137 -22 c-3
-8 -6 -5 -6 6 -1 11 2 17 5 13 3 -3 4 -12 1 -19z m1413 -3 c0 -26 -69 -93
-123 -119 -60 -31 -77 -32 -77 -8 0 12 19 27 58 46 32 15 76 43 98 62 46 39
44 38 44 19z m-1549 -47 c7 -13 6 -16 -3 -13 -75 26 -72 24 -52 46 18 20 19
20 32 2 7 -10 18 -26 23 -35z m25 23 c-4 -5 -1 -12 4 -14 6 -3 5 -4 -2 -3 -15
3 -23 26 -8 26 6 0 9 -4 6 -9z m1284 -157 c0 -86 -7 -283 -16 -438 -13 -243
-17 -282 -32 -291 -54 -32 -172 -93 -172 -89 0 16 77 154 100 179 27 30 28 32
36 215 9 187 8 429 -2 439 -2 3 -160 -73 -350 -168 -190 -95 -348 -171 -350
-168 -8 7 205 126 453 253 l253 129 0 42 c0 35 3 42 23 46 61 12 57 21 57
-149z m-1977 112 c18 -7 43 -26 57 -40 23 -25 25 -36 27 -124 l1 -97 -7 76
c-7 80 -24 117 -65 145 -27 17 -97 16 -103 -2 -2 -6 7 -9 24 -7 42 6 90 -29
102 -74 6 -21 11 -92 11 -159 0 -108 -2 -123 -20 -139 -36 -33 -117 -5 -162
56 -14 19 -19 51 -24 145 -8 142 2 183 49 213 38 24 66 26 110 7z m925 -43
c-3 -25 -4 -25 -18 -8 -8 10 -10 16 -3 12 7 -5 9 0 6 14 -4 16 -8 17 -14 7 -7
-10 -9 -9 -9 4 0 21 23 29 33 11 5 -7 7 -25 5 -40z m1532 -132 c28 -30 45 -64
73 -149 40 -119 45 -164 23 -217 -17 -41 -35 -51 -103 -58 -43 -4 -57 -2 -78
15 -22 17 -25 26 -25 86 l1 67 19 -24 c14 -16 20 -38 20 -72 l0 -49 55 0 c77
0 105 27 105 102 -1 87 -91 270 -151 307 -16 10 -26 21 -22 24 16 17 49 4 83
-32z m-2251 -156 c0 -184 -9 -223 -54 -241 -33 -13 -122 1 -202 31 -37 15 -43
21 -51 58 -5 23 -7 44 -6 45 1 2 23 -10 48 -27 81 -56 152 -36 176 50 6 19 10
86 10 150 l0 116 40 -10 40 -11 -1 -161z m2221 97 c0 -2 -6 0 -13 7 -8 6 -17
7 -23 1 -5 -5 -25 1 -49 16 -22 14 -31 23 -20 20 11 -3 26 -2 34 3 9 6 23 1
42 -17 16 -14 29 -27 29 -30z m-220 18 c-19 -13 -30 -13 -30 0 0 6 10 10 23
10 18 0 19 -2 7 -10z m124 -20 c37 -33 70 -102 61 -130 -3 -9 -17 -22 -30 -28
-21 -10 -25 -9 -25 4 0 22 -34 85 -65 118 -25 27 -25 29 -9 47 23 25 27 24 68
-11z m-1194 -40 c0 -63 -5 -70 -62 -84 -28 -6 -28 -6 -28 49 0 52 2 57 33 75
51 31 57 27 57 -40z m755 -57 c-20 -304 -30 -384 -52 -402 -11 -9 -29 -30 -41
-48 -15 -20 -69 -57 -159 -109 -375 -211 -456 -255 -460 -250 -15 15 34 52
169 125 305 167 423 236 457 266 l34 32 23 229 c13 126 24 237 24 247 0 9 3
17 6 17 4 0 3 -48 -1 -107z m339 56 c35 -27 62 -82 71 -142 7 -46 6 -48 -36
-88 -65 -61 -225 -159 -259 -159 -26 0 -5 21 43 43 63 29 186 108 212 136 35
40 -10 152 -75 186 -16 9 -30 22 -30 30 0 22 43 18 74 -6z m-2396 -96 c11 -38
23 -94 26 -126 12 -111 40 -135 220 -186 119 -34 149 -37 163 -18 6 6 14 57
17 112 5 59 13 109 22 123 28 43 104 18 104 -35 0 -20 -4 -23 -32 -21 l-33 3
-5 -118 c-7 -163 -15 -168 -190 -122 -297 79 -305 86 -330 311 -9 76 -9 107
-1 123 7 11 13 21 16 21 2 0 12 -30 23 -67z m1872 48 c5 -11 10 -35 10 -53 0
-33 0 -33 -18 -11 -9 12 -25 23 -34 25 -27 5 -202 -100 -283 -169 -40 -33 -77
-58 -82 -55 -19 12 -25 52 -13 87 8 25 23 41 50 55 44 22 54 25 45 10 -7 -12
123 43 220 93 82 42 91 44 105 18z m-1623 -43 c-3 -8 -6 -5 -6 6 -1 11 2 17 5
13 3 -3 4 -12 1 -19z m-330 -10 c-3 -8 -6 -5 -6 6 -1 11 2 17 5 13 3 -3 4 -12
1 -19z m2393 18 c0 -3 -4 -8 -10 -11 -5 -3 -10 -1 -10 4 0 6 5 11 10 11 6 0
10 -2 10 -4z m-1024 -453 c-4 -247 -9 -455 -12 -465 -3 -9 -18 -21 -34 -27
l-30 -10 0 464 0 463 38 10 c20 5 39 10 41 11 2 1 0 -200 -3 -446z m556 396
c-2 -8 -8 -51 -12 -96 -10 -98 -15 -108 -81 -167 -55 -50 -91 -58 -111 -27 -9
15 -15 17 -26 9 -10 -8 -17 -8 -28 4 -19 19 -32 152 -15 162 21 13 46 -13 56
-60 13 -59 34 -75 72 -52 40 23 53 54 53 128 0 74 7 88 47 106 33 14 49 12 45
-7z m-455 -306 c-3 -154 -10 -268 -16 -283 -9 -19 -10 34 -6 211 5 227 12 329
23 329 3 0 2 -116 -1 -257z"/>
<path d="M3154 3949 c-9 -15 14 -29 48 -29 16 0 42 -13 63 -31 19 -17 35 -28
35 -25 0 17 -32 66 -52 80 -26 18 -84 21 -94 5z"/>
<path d="M2826 3878 c-9 -12 -16 -30 -16 -40 0 -14 5 -13 26 9 19 19 33 24 55
21 31 -5 36 1 17 20 -20 20 -65 14 -82 -10z"/>
<path d="M3167 3813 c-24 -23 16 -114 43 -98 15 9 12 58 -6 83 -16 23 -26 27
-37 15z"/>
<path d="M3626 3798 c-20 -29 -20 -45 1 -56 10 -6 14 -16 9 -27 -5 -15 -4 -16
9 -5 8 7 15 23 15 36 0 19 5 24 25 24 29 0 32 12 9 34 -22 22 -50 20 -68 -6z"/>
<path d="M2905 3760 c-9 -15 4 -67 20 -80 33 -27 48 27 19 68 -16 24 -29 28
-39 12z"/>
<path d="M3041 3680 c1 -42 1 -43 10 -18 7 18 7 33 0 45 -8 14 -10 9 -10 -27z"/>
<path d="M3015 3610 c-14 -43 35 -82 76 -59 17 9 19 13 8 20 -8 5 -21 6 -30 4
-20 -7 -43 20 -35 40 3 8 1 15 -4 15 -5 0 -11 -9 -15 -20z"/>
<path d="M3175 3503 c-31 -18 -52 -23 -93 -21 -40 2 -49 0 -36 -7 9 -5 39 -25
65 -42 27 -18 57 -33 66 -32 16 0 15 1 -2 9 -19 7 -19 8 -2 15 10 4 24 19 33
34 l15 26 -5 -35 c-5 -33 -5 -34 9 -16 18 24 20 70 3 83 -9 7 -26 2 -53 -14z"/>
<path d="M1979 3170 c-64 -43 -95 -70 -84 -70 6 0 36 18 69 40 32 22 62 37 67
34 5 -3 6 2 3 10 -8 20 -3 21 -55 -14z"/>
<path d="M1999 3144 c-8 -10 -9 -18 -2 -25 12 -12 43 -1 43 16 0 20 -27 26
-41 9z"/>
<path d="M1995 2994 c-10 -15 -12 -23 -4 -19 9 6 11 3 6 -9 -6 -14 -3 -17 9
-12 13 5 14 4 6 -7 -18 -21 56 -22 79 -1 24 22 24 29 -1 54 -29 29 -74 26 -95
-6z m55 -10 c0 -17 -26 -19 -36 -3 -7 12 15 31 28 23 4 -3 8 -12 8 -20z"/>
<path d="M2087 2913 c-12 -11 -8 -33 8 -39 17 -7 49 21 40 36 -7 11 -38 13
-48 3z"/>
<path d="M2452 2718 c-15 -15 -16 -74 -1 -84 6 -3 16 -1 22 5 8 8 6 11 -6 11
-29 0 -22 49 9 60 30 12 44 6 44 -18 0 -13 -2 -13 -15 4 -13 17 -14 17 -15 2
0 -11 -5 -15 -15 -12 -10 4 -15 0 -15 -11 0 -12 8 -16 33 -13 28 3 32 6 32 33
0 26 -4 30 -30 33 -17 2 -36 -3 -43 -10z"/>
<path d="M2266 2752 c-6 -11 5 -27 24 -34 10 -4 20 3 27 18 10 22 9 24 -17 24
-16 0 -31 -4 -34 -8z"/>
<path d="M1885 2660 c-16 -16 -27 -31 -24 -33 2 -1 12 -9 21 -16 15 -11 21 -9
45 13 22 21 26 29 17 43 -17 27 -28 25 -59 -7z m30 -10 c-10 -11 -23 -20 -28
-20 -6 0 -2 9 8 20 10 11 23 20 28 20 6 0 2 -9 -8 -20z"/>
<path d="M2647 2551 c-6 -23 10 -41 35 -41 12 0 18 7 17 23 0 12 -3 16 -6 10
-2 -7 -12 -13 -21 -13 -13 0 -14 2 -4 9 10 6 10 10 -1 20 -12 9 -16 8 -20 -8z"/>
<path d="M2349 2372 c33 -43 61 -68 61 -57 0 12 -72 95 -82 95 -5 0 4 -17 21
-38z"/>
<path d="M1405 2540 c-11 -17 4 -60 21 -60 24 0 28 30 7 52 -15 14 -23 17 -28
8z"/>
<path d="M2090 2430 c-36 -36 -16 -90 33 -90 39 0 54 33 27 60 -12 12 -27 19
-33 17 -17 -5 -21 -37 -7 -51 8 -8 10 -7 5 7 -5 12 -2 17 9 17 20 0 21 -26 2
-33 -20 -8 -38 17 -34 45 5 37 38 35 70 -3 33 -39 40 -16 7 25 -24 31 -52 33
-79 6z"/>
<path d="M2472 2444 c-28 -19 -28 -58 -1 -78 19 -13 26 -13 49 -1 36 19 44 42
25 71 -18 28 -41 30 -73 8z m55 -21 c3 -7 -3 -9 -16 -6 -12 3 -21 10 -21 15 0
13 32 6 37 -9z m-34 -43 c-8 -8 -33 32 -27 42 4 6 12 -1 18 -14 7 -12 11 -25
9 -28z"/>
<path d="M1190 2160 c8 -5 20 -10 25 -10 6 0 3 5 -5 10 -8 5 -19 10 -25 10 -5
0 -3 -5 5 -10z"/>
<path d="M1240 2140 c8 -5 20 -10 25 -10 6 0 3 5 -5 10 -8 5 -19 10 -25 10 -5
0 -3 -5 5 -10z"/>
<path d="M2686 1855 c-6 -17 9 -65 22 -65 32 0 42 54 13 70 -26 13 -28 13 -35
-5z"/>
<path d="M2369 1671 c95 -32 116 -50 161 -146 22 -46 29 -54 29 -35 1 38 -42
122 -77 152 -20 16 -58 32 -101 42 -103 23 -107 19 -12 -13z"/>
<path d="M2708 1514 c-15 -14 -9 -91 8 -105 14 -11 18 -10 30 6 18 25 18 59
-1 75 -13 11 -15 7 -17 -26 -1 -37 -1 -37 -7 9 -3 27 -9 45 -13 41z"/>
<path d="M997 1453 c-14 -13 -6 -42 15 -57 31 -22 38 -20 38 12 0 39 -32 67
-53 45z"/>
<path d="M1200 1406 c0 -4 507 -172 640 -213 88 -27 23 6 -100 50 -124 45
-512 167 -531 167 -5 0 -9 -2 -9 -4z"/>
<path d="M2211 1106 c2 -2 18 -6 34 -10 22 -5 26 -4 15 4 -14 9 -59 15 -49 6z"/>
<path d="M2722 908 c-16 -16 -15 -23 4 -42 22 -23 34 -20 34 8 0 31 -22 50
-38 34z"/>
<path d="M3019 2277 c-5 -30 -1 -52 9 -50 6 2 9 -3 6 -11 -3 -8 5 -21 17 -30
27 -19 37 -13 18 10 -7 9 -14 22 -15 29 -2 17 -34 63 -35 52z"/>
<path d="M3653 1343 c-18 -7 -17 -63 1 -63 17 0 21 5 30 43 6 27 -2 32 -31 20z"/>
<path d="M1676 1938 c-11 -15 -16 -44 -16 -88 0 -57 3 -70 23 -88 33 -31 72
-29 94 5 26 39 24 123 -3 160 -28 37 -76 43 -98 11z m77 -23 c38 -38 25 -127
-20 -133 -49 -7 -75 102 -31 132 28 20 33 20 51 1z"/>
<path d="M3406 1590 c-13 -73 -49 -123 -114 -159 -29 -17 -5 -23 26 -7 66 34
115 119 103 176 l-8 35 -7 -45z"/>
<path d="M1555 2911 c-93 -34 -306 -123 -302 -128 8 -7 367 132 367 142 0 7
-10 5 -65 -14z"/>
<path d="M1070 2650 c-8 -5 -10 -10 -5 -10 6 0 17 5 25 10 8 5 11 10 5 10 -5
0 -17 -5 -25 -10z"/>
<path d="M1020 2630 c-8 -5 -10 -10 -5 -10 6 0 17 5 25 10 8 5 11 10 5 10 -5
0 -17 -5 -25 -10z"/>
<path d="M970 2610 c-8 -5 -10 -10 -5 -10 6 0 17 5 25 10 8 5 11 10 5 10 -5 0
-17 -5 -25 -10z"/>
<path d="M920 2590 c-8 -5 -10 -10 -5 -10 6 0 17 5 25 10 8 5 11 10 5 10 -5 0
-17 -5 -25 -10z"/>
<path d="M781 2290 c-1 -48 17 -367 24 -406 5 -29 3 -32 -25 -38 -26 -5 -31
-10 -28 -28 2 -15 11 -24 27 -26 15 -2 21 0 17 7 -10 15 7 14 23 -1 11 -11 12
0 7 57 -3 39 -11 135 -17 215 -12 167 -26 276 -28 220z"/>
<path d="M812 1727 c-30 -9 -33 -14 -30 -45 2 -31 0 -35 -34 -47 -29 -10 -39
-10 -50 0 -10 10 -30 6 -101 -20 -49 -19 -91 -36 -94 -39 -3 -3 4 -25 16 -49
15 -32 38 -56 78 -82 l57 -38 61 13 c33 7 84 18 114 25 30 6 57 17 59 23 2 7
-1 12 -8 12 -6 0 -10 8 -8 18 2 12 -14 25 -62 48 -74 36 -100 58 -75 68 8 3
15 0 15 -7 1 -15 148 -98 155 -87 3 5 -23 24 -58 44 -93 52 -97 59 -40 82 27
10 51 17 56 16 4 -1 7 16 7 38 0 43 -3 45 -58 27z m38 -23 c0 -11 -6 -14 -21
-9 -12 4 -19 3 -16 -2 3 -5 2 -15 -4 -23 -6 -11 -9 -8 -9 12 0 24 9 32 43 37
4 0 7 -6 7 -15z m-116 -137 c16 -15 35 -26 43 -23 8 4 11 1 8 -5 -4 -6 -1 -9
6 -8 19 4 59 -10 59 -21 0 -4 -40 -22 -88 -38 l-89 -29 -44 32 c-66 48 -105
93 -88 99 8 3 43 16 79 30 59 22 66 23 75 8 6 -9 23 -29 39 -45z"/>
<path d="M608 1582 c-27 -8 -48 -18 -48 -22 0 -4 24 -26 53 -49 47 -39 56 -42
92 -37 23 3 61 13 85 24 34 14 40 20 26 25 -9 4 -15 3 -12 -2 3 -5 -22 -16
-55 -25 -64 -19 -78 -15 -123 29 -24 24 -20 30 25 45 22 8 42 17 45 22 8 12
-36 8 -88 -10z"/>
<path d="M662 1561 c-16 -10 -5 -39 19 -52 20 -10 39 -5 39 12 0 6 -4 7 -10 4
-6 -3 -7 1 -4 9 6 16 -10 23 -19 9 -2 -5 -2 -3 -1 4 4 16 -9 24 -24 14z"/>
<path d="M4412 1521 c-26 -33 -65 -56 -126 -75 -12 -4 -16 -12 -12 -23 4 -9 1
-20 -5 -24 -34 -21 13 -30 255 -54 l60 -6 53 57 c51 53 66 84 42 84 -7 0 -9
11 -5 30 l6 30 -88 0 c-48 0 -101 4 -119 9 -29 8 -34 6 -61 -28z m150 1 l87
-4 -24 -48 c-39 -78 -47 -82 -129 -75 -39 3 -102 11 -141 17 l-70 11 37 13
c48 16 105 60 114 86 4 13 11 17 22 12 10 -4 56 -9 104 -12z"/>
<path d="M4421 1486 c-19 -20 -43 -39 -54 -42 -40 -13 4 -27 98 -32 105 -5
124 2 143 58 l10 27 -59 7 c-33 3 -70 8 -82 11 -17 5 -31 -3 -56 -29z m155
-11 c10 -10 9 -17 -7 -34 -17 -18 -31 -21 -91 -21 -39 0 -68 3 -64 7 4 4 22 6
40 5 56 -4 72 37 22 59 -14 6 -4 7 33 3 30 -4 60 -12 67 -19z m-88 -14 c3 -10
-2 -12 -21 -7 -14 3 -29 2 -32 -4 -3 -5 -11 -10 -17 -10 -6 0 -3 9 7 20 21 23
56 23 63 1z m-91 -27 c-3 -3 -12 -4 -19 -1 -8 3 -5 6 6 6 11 1 17 -2 13 -5z"/>
<path d="M4078 1392 c-10 -15 -23 -35 -30 -45 -11 -14 -10 -19 2 -27 8 -5 38
-26 67 -47 l52 -37 -36 -44 c-19 -23 -36 -48 -37 -55 -1 -7 -5 -18 -10 -25
-11 -18 -5 -22 56 -43 29 -10 46 -18 38 -19 -9 0 -33 -18 -54 -39 l-39 -40 29
-6 c16 -4 35 -8 42 -11 16 -5 94 65 86 78 -4 5 33 6 95 2 99 -7 101 -6 143 22
55 36 108 85 108 99 0 5 -9 16 -20 23 -17 10 -19 16 -9 33 15 29 4 35 -89 42
-114 10 -122 13 -115 49 l6 30 -55 -7 c-54 -7 -57 -6 -94 28 -37 33 -94 67
-111 67 -4 0 -16 -12 -25 -28z m88 -24 c21 -18 49 -38 63 -45 14 -6 19 -12 11
-12 -8 0 -26 -14 -40 -31 l-25 -30 -30 24 c-25 20 -28 26 -16 40 11 13 11 16
-1 16 -19 0 -55 27 -46 35 4 4 17 0 30 -9 29 -20 48 -20 48 0 0 11 -6 13 -19
9 -16 -5 -19 -1 -18 15 1 11 2 20 4 20 1 0 19 -15 39 -32z m-75 -45 c13 -15
12 -15 -8 -4 -24 12 -29 21 -14 21 5 0 15 -7 22 -17z m229 -21 l-25 -5 25 -8
c18 -5 9 -7 -30 -6 -41 2 -54 -1 -52 -11 1 -8 -2 -11 -7 -8 -10 7 -51 -57 -57
-89 -4 -22 -6 -25 59 59 26 34 31 36 65 30 20 -4 39 -10 42 -13 3 -3 16 -7 30
-8 108 -10 160 -17 160 -22 0 -13 -57 -96 -80 -116 -19 -17 -34 -20 -100 -18
-81 2 -216 28 -225 43 -3 5 20 44 51 87 48 67 61 79 92 84 46 8 88 9 52 1z
m-105 -271 c3 -5 -4 -12 -15 -16 -11 -3 -20 -11 -20 -16 0 -5 -12 -9 -27 -9
l-28 1 28 24 c29 26 52 32 62 16z"/>
<path d="M4395 1220 c22 -11 48 -20 58 -20 22 0 22 -19 -1 -46 -25 -31 -55
-44 -99 -43 -37 1 -37 2 10 9 45 8 87 32 87 50 0 4 -9 10 -21 13 -14 4 -19 2
-15 -8 9 -24 -27 -43 -91 -47 -33 -1 -59 0 -57 3 5 8 -85 21 -97 14 -4 -3 -6
4 -4 17 4 20 3 21 -11 6 -22 -22 -8 -41 23 -33 18 4 23 2 17 -6 -5 -9 -1 -10
14 -7 12 3 22 2 24 -3 2 -5 42 -12 89 -15 78 -6 90 -5 116 14 15 11 38 38 50
60 l23 39 -58 6 c-31 3 -66 8 -77 11 -11 4 -2 -3 20 -14z"/>
<path d="M4277 1224 c-4 -4 -7 -16 -7 -26 0 -15 6 -19 28 -16 19 2 27 9 27 23
0 20 -33 33 -48 19z"/>
<path d="M493 1399 c-45 -13 -48 -24 -10 -46 27 -16 38 -18 74 -9 56 15 62 24
33 46 -27 21 -48 23 -97 9z m65 -25 c-10 -10 -23 -14 -37 -9 -30 9 -16 25 22
25 29 0 30 -1 15 -16z"/>
<path d="M780 1255 c-58 -13 -118 -24 -133 -24 -23 -1 -27 -4 -22 -20 4 -15
-1 -24 -22 -35 -26 -13 -27 -15 -8 -22 11 -4 58 -25 104 -46 l85 -38 60 20
c34 11 99 28 145 39 46 11 86 22 89 25 10 11 -23 37 -100 81 -44 25 -83 44
-87 44 -3 -1 -53 -12 -111 -24z m177 -32 c40 -21 73 -41 73 -45 0 -5 -13 -8
-29 -8 -16 0 -70 -11 -121 -24 l-92 -24 -64 41 -64 41 102 27 c57 15 108 28
113 28 6 1 43 -16 82 -36z"/>
<path d="M854 1239 c-13 -22 30 -51 72 -47 l39 3 -40 28 c-43 29 -60 33 -71
16z"/>
<path d="M750 1210 c-13 -9 -13 -10 0 -11 8 -1 22 -1 30 0 13 2 13 1 0 -8 -12
-8 -8 -11 18 -11 36 0 38 2 16 24 -18 18 -42 20 -64 6z"/>
<path d="M744 1170 c47 -30 47 -30 104 -16 31 8 68 17 82 19 l25 4 -25 1 c-14
1 -50 -4 -81 -11 -53 -13 -57 -12 -89 10 -19 13 -41 23 -49 23 -8 0 6 -14 33
-30z"/>
<path d="M978 1183 c6 -2 18 -2 25 0 6 3 1 5 -13 5 -14 0 -19 -2 -12 -5z"/>
<path d="M3749 1182 c-33 -22 -257 -211 -264 -222 -3 -5 11 -13 32 -19 43 -11
240 -42 264 -41 19 0 238 161 252 185 14 27 -9 41 -103 65 -46 12 -100 28
-118 36 -41 17 -32 17 -63 -4z m126 -35 c44 -14 93 -28 110 -32 l30 -7 -46
-22 c-25 -12 -77 -46 -114 -75 l-69 -54 -113 18 c-62 9 -113 19 -113 21 0 11
214 184 224 180 6 -3 47 -16 91 -29z"/>
<path d="M3676 1082 l-88 -76 93 -18 c52 -9 97 -17 101 -17 4 -1 4 6 1 16 -4
10 -2 14 5 9 6 -3 18 4 26 16 9 12 16 18 16 13 0 -6 7 -1 16 10 8 11 18 20 22
20 4 0 6 4 4 9 -2 5 4 6 12 3 8 -3 20 2 28 11 11 15 11 15 -3 5 -13 -10 -16
-10 -16 1 0 9 8 13 20 10 11 -2 27 1 36 6 15 9 15 9 -1 10 -9 0 -49 11 -90 25
-40 14 -77 25 -83 24 -5 0 -50 -35 -99 -77z m154 42 c22 -9 40 -22 40 -28 0
-7 -18 -27 -40 -45 -22 -18 -38 -35 -36 -39 7 -12 -149 0 -161 12 -2 1 28 25
67 53 38 28 66 53 63 57 -12 12 27 6 67 -10z"/>
<path d="M3777 1114 c-15 -15 -6 -42 15 -47 26 -7 75 20 61 34 -12 12 -67 22
-76 13z m33 -18 c0 -2 -7 -7 -16 -10 -8 -3 -12 -2 -9 4 6 10 25 14 25 6z"/>
<path d="M3745 1050 c-11 -17 -3 -19 35 -10 19 4 27 8 18 9 -9 1 -23 4 -31 7
-8 3 -18 0 -22 -6z"/>
<path d="M1280 1129 c-31 -16 -71 -29 -91 -29 -46 0 -159 -57 -159 -80 0 -33
58 -98 108 -121 49 -23 49 -23 28 -40 -63 -52 57 -21 232 59 l123 57 -7 40
c-3 22 -11 43 -18 47 -6 3 -37 27 -70 52 -32 25 -66 46 -75 45 -9 0 -41 -14
-71 -30z m152 -41 l57 -45 -76 -54 c-42 -30 -91 -62 -107 -71 -37 -21 -115
-23 -159 -4 -34 14 -97 78 -97 99 0 22 71 58 131 68 71 11 103 23 136 49 29
23 33 21 115 -42z"/>
<path d="M1324 1115 c-22 -17 -122 -51 -176 -59 -20 -4 -47 -15 -60 -25 -22
-19 -22 -19 -4 -40 19 -20 42 -20 30 1 -5 7 -2 8 6 3 8 -5 17 -2 24 7 12 17
86 51 93 44 3 -2 -12 -10 -31 -17 -20 -7 -36 -17 -36 -21 0 -11 2 -10 42 7 34
13 36 13 58 -10 24 -26 65 -34 58 -12 -2 6 -18 19 -35 28 l-30 15 39 21 38 21
30 -25 c17 -13 30 -29 30 -33 0 -9 -108 -64 -146 -74 -12 -4 -40 4 -66 17 -32
16 -52 21 -62 15 -23 -13 -20 -26 12 -41 53 -28 141 -30 125 -4 -4 6 0 8 10 4
10 -3 17 -2 17 3 0 6 3 9 8 8 8 -2 106 53 140 80 l23 18 -47 34 c-69 51 -69
51 -90 35z m-44 -55 c-8 -5 -19 -10 -25 -10 -5 0 -3 5 5 10 8 5 20 10 25 10 6
0 3 -5 -5 -10z m-110 -110 c13 -8 13 -10 -2 -10 -9 0 -20 5 -23 10 -8 13 5 13
25 0z m70 -23 c13 -5 13 -6 -1 -6 -8 -1 -24 6 -35 15 -19 15 -19 15 1 6 11 -5
27 -12 35 -15z"/>
<path d="M3267 939 c-15 -12 -48 -49 -72 -84 -37 -52 -44 -68 -39 -93 5 -27
12 -32 68 -47 33 -9 116 -32 184 -52 142 -41 126 -45 240 63 l73 69 -16 32
c-9 18 -24 34 -33 37 -170 51 -334 96 -353 96 -13 0 -36 -10 -52 -21z m222
-44 c90 -25 170 -49 178 -53 22 -13 -101 -122 -137 -122 -25 0 -341 68 -348
75 -2 2 15 28 37 59 40 54 76 86 96 86 6 0 85 -20 174 -45z"/>
<path d="M3288 909 c-18 -10 -83 -98 -76 -103 8 -7 286 -66 310 -66 26 0 129
82 118 93 -11 12 -277 87 -305 87 -16 0 -38 -5 -47 -11z m180 -35 c45 -13 85
-24 88 -24 3 0 2 -4 -1 -10 -3 -5 0 -7 8 -4 28 10 27 -15 0 -42 -19 -18 -22
-25 -10 -20 10 3 16 2 12 -3 -8 -13 -72 -7 -138 13 -33 10 -72 16 -87 14 -17
-3 -26 0 -23 5 4 6 -5 8 -20 5 -16 -3 -24 -1 -20 5 4 6 -4 8 -20 5 -22 -4 -25
-2 -17 12 5 10 26 32 46 49 41 36 38 36 182 -5z m142 -68 c0 -2 -8 -10 -17
-17 -16 -13 -17 -12 -4 4 13 16 21 21 21 13z"/>
<path d="M3317 873 c-11 -10 -8 -51 4 -58 5 -4 21 -4 34 -1 28 7 44 44 24 57
-17 10 -53 12 -62 2z m50 -28 c-4 -8 -11 -15 -17 -15 -6 0 -8 5 -5 10 3 6 0
10 -7 11 -7 0 -4 4 7 8 24 10 29 7 22 -14z"/>
<path d="M3520 810 c0 -5 4 -10 9 -10 6 0 13 5 16 10 3 6 -1 10 -9 10 -9 0
-16 -4 -16 -10z"/>
<path d="M1695 909 c-38 -21 -87 -42 -107 -45 -63 -11 -49 -38 56 -108 l68
-45 79 39 c76 39 78 41 73 70 -4 19 -2 30 5 30 24 0 8 27 -36 58 -25 19 -51
35 -57 37 -6 2 -42 -14 -81 -36z m80 11 c-3 -6 -40 -28 -82 -48 l-75 -38 51
-33 c29 -19 49 -36 47 -39 -3 -2 -35 14 -71 38 -61 40 -80 57 -53 48 13 -5
129 49 163 75 21 16 31 15 20 -3z m48 -29 c15 -8 27 -17 27 -20 0 -3 -28 -25
-62 -48 -56 -39 -64 -42 -82 -29 -12 8 -20 19 -18 25 1 6 -6 11 -15 11 -10 1
8 14 39 30 31 16 60 34 63 40 4 6 10 10 13 8 4 -2 19 -10 35 -17z"/>
<path d="M1775 880 c-3 -4 2 -11 11 -14 23 -9 46 -7 40 3 -8 12 -45 21 -51 11z"/>
<path d="M1720 850 c-12 -8 -12 -10 2 -15 20 -8 41 2 33 16 -8 11 -16 11 -35
-1z"/>
<path d="M1981 851 c-39 -3 -66 -11 -69 -19 -3 -9 3 -11 24 -6 15 4 77 7 138
8 l111 1 87 -45 c60 -30 83 -47 74 -52 -20 -11 -74 14 -68 31 4 11 -1 10 -19
-2 -13 -10 -35 -16 -49 -16 -24 1 -23 2 4 8 16 3 31 12 34 19 5 17 -62 44 -93
36 -37 -9 -31 -27 8 -20 17 3 39 1 47 -4 11 -7 3 -10 -28 -10 -39 0 -43 -2
-37 -20 10 -31 -37 -26 -87 10 -43 31 -65 39 -52 18 5 -7 -5 -3 -20 10 -32 25
-56 29 -56 9 0 -7 -16 -30 -35 -52 l-36 -38 33 -28 c63 -53 68 -54 201 -41
149 15 242 15 268 2 22 -12 24 -7 7 19 -9 15 -8 24 5 45 l17 26 -47 30 c-132
83 -196 98 -362 81z m41 -139 c-32 -16 -65 -11 -96 13 -18 14 -18 16 -3 33 9
10 17 26 17 36 0 13 13 7 56 -26 l56 -42 -30 -14z m44 37 c3 -6 -5 -3 -20 6
-14 10 -26 19 -26 22 0 7 39 -17 46 -28z m237 -22 c9 -1 17 -8 17 -15 0 -10
-7 -12 -22 -8 -59 17 -136 18 -198 1 -151 -40 -145 -40 -179 -16 -45 32 -38
46 7 16 l38 -25 60 21 c84 29 141 39 204 33 30 -3 63 -6 73 -7z"/>
<path d="M2017 823 c-20 -2 -35 -8 -32 -12 2 -5 28 -4 56 1 29 5 60 7 70 5 9
-3 23 -1 30 4 14 9 -48 10 -124 2z"/>
<path d="M1305 759 c-11 -5 -46 -16 -77 -24 -57 -16 -76 -39 -43 -51 14 -6 14
-8 -1 -18 -14 -11 -13 -13 8 -23 19 -9 42 -5 116 19 51 16 92 33 92 38 0 5
-17 22 -37 38 -29 22 -43 27 -58 21z m25 -29 c0 -5 8 -10 18 -11 20 -1 -75
-37 -98 -37 -8 0 8 8 35 18 59 22 39 26 -27 6 -25 -7 -52 -10 -59 -6 -8 6 3
12 32 20 24 6 49 13 54 15 20 7 45 5 45 -5z"/>
<path d="M2745 700 c-159 -62 -203 -86 -217 -116 -11 -24 -9 -28 28 -59 68
-58 77 -61 116 -32 78 60 235 104 312 90 26 -5 27 -4 18 14 -6 11 -18 26 -27
33 -12 10 -13 15 -3 21 16 10 -18 48 -70 76 l-37 20 -120 -47z m155 5 c8 -9 9
-15 2 -15 -6 0 -14 5 -17 10 -3 6 -14 10 -23 10 -13 0 -11 -4 7 -16 18 -13 20
-18 10 -25 -8 -5 -9 -9 -4 -9 6 1 18 7 28 15 19 14 47 10 47 -6 0 -5 -7 -9
-15 -9 -20 0 -251 -106 -284 -130 -25 -18 -26 -18 -68 12 -23 17 -40 35 -37
40 3 5 21 -5 40 -22 40 -35 38 -34 54 -15 11 13 10 15 -1 11 -8 -3 -27 6 -44
19 l-29 24 64 30 c77 36 218 89 241 90 9 1 22 -6 29 -14z"/>
<path d="M2775 672 c-6 -4 -10 -13 -9 -19 1 -7 2 -20 3 -28 1 -13 6 -12 37 2
l36 17 -22 18 c-25 20 -30 21 -45 10z"/>
<path d="M2651 620 c-35 -16 -41 -23 -32 -34 20 -23 44 -24 96 0 48 21 49 22
15 19 -19 -2 -48 -8 -63 -14 -34 -13 -37 -13 -37 -2 0 5 16 15 35 21 19 6 35
16 35 21 0 11 3 12 -49 -11z"/>
<path d="M1651 611 c-47 -8 -49 -25 -6 -51 35 -22 50 -22 148 -4 l27 6 -21 29
c-18 25 -26 29 -67 28 -26 -1 -62 -4 -81 -8z m113 -10 c8 -13 -58 -23 -91 -14
-27 7 -27 8 12 14 62 10 73 10 79 0z m-26 -38 c-10 -2 -28 -2 -40 0 -13 2 -5
4 17 4 22 1 32 -1 23 -4z"/>
</g>
</svg>